<svg xmlns="http://www.w3.org/2000/svg" viewBox="0 0 45 45"><defs><style>.cls-1{fill:#ff6900;}.cls-2{fill:#fff;}</style></defs><g id="Layer_2" data-name="Layer 2"><g id="Layer_1-2" data-name="Layer 1"><circle class="cls-1" cx="22.5" cy="22.5" r="22.5"/><path class="cls-2" d="M34.1,16.7H28.3V10.9a2.5,2.5,0,0,0-2.5-2.5H19.2a2.5,2.5,0,0,0-2.5,2.5v5.8H10.9a2.5,2.5,0,0,0-2.5,2.5v6.6a2.5,2.5,0,0,0,2.5,2.5h5.8v5.8a2.5,2.5,0,0,0,2.5,2.5h6.6a2.5,2.5,0,0,0,2.5-2.5V28.3h5.8a2.5,2.5,0,0,0,2.5-2.5V19.2A2.5,2.5,0,0,0,34.1,16.7ZM25.8,27v7.1H19.2V27a1.3,1.3,0,0,0-1.3-1.3H10.8V19h7.1a1.2,1.2,0,0,0,1.3-1.2V10.7h6.6v7.1A1.2,1.2,0,0,0,27.1,19h7.1v6.7H27.1A1.3,1.3,0,0,0,25.8,27Z"/></g></g></svg>