<svg xmlns="http://www.w3.org/2000/svg" viewBox="0 0 45 45"><defs><style>.cls-1{fill:#ff6900;}.cls-2{fill:#fff;}</style></defs><g id="Layer_2" data-name="Layer 2"><g id="Layer_1-2" data-name="Layer 1"><circle class="cls-1" cx="22.5" cy="22.5" r="22.5"/><path class="cls-2" d="M20,33.8A1.2,1.2,0,0,1,18.8,35H12.1A3.1,3.1,0,0,1,9,31.9H9V21.5a6,6,0,0,1,1.8-4L21.7,8.3a1.2,1.2,0,0,1,1.6,0l10.9,9.2a6,6,0,0,1,1.8,4V31.9A3.1,3.1,0,0,1,32.9,35H26.2A1.2,1.2,0,0,1,25,33.8V26.4H20Zm12.9-1.3a.5.5,0,0,0,.6-.6h0V21.5a3.1,3.1,0,0,0-.9-2.1L22.5,10.8,12.4,19.4a3.1,3.1,0,0,0-.9,2.1V31.9a.5.5,0,0,0,.6.6h5.5V25.2A1.2,1.2,0,0,1,18.8,24h7.4a1.2,1.2,0,0,1,1.2,1.2v7.3Z"/></g></g></svg>