<svg xmlns="http://www.w3.org/2000/svg" viewBox="0 0 45 45"><defs><style>.cls-1{fill:#ff6900;}.cls-2{fill:#fff;}</style></defs><g id="Layer_2" data-name="Layer 2"><g id="Layer_1-2" data-name="Layer 1"><circle class="cls-1" cx="22.5" cy="22.5" r="22.5"/><path id="Path_256" data-name="Path 256" class="cls-2" d="M22.5,14.3,32,11.4a3,3,0,0,1,3.8,1.8,4.3,4.3,0,0,1,.2,1.2V28.5a4.7,4.7,0,0,1-3.2,4.3l-9.9,2.9h-.8l-9.9-2.9A4.9,4.9,0,0,1,9,28.5V14.4a3.1,3.1,0,0,1,2.8-3.2l1.2.2Zm-10.3-.5c-.4-.2-.7,0-.7.6V28.5A2,2,0,0,0,13,30.4L21.3,33V16.5ZM32.1,30.4a2.3,2.3,0,0,0,1.5-1.9V14.4c0-.6-.2-.8-.8-.6l-9,2.7V32.9Z"/></g></g></svg>